<svg viewBox="0 0 800 1000" xmlns="http://www.w3.org/2000/svg" role="img" aria-label="Light filtering through a forest canopy down into the shaded understory">
<defs>
      <linearGradient id="skyH" x1="0" y1="0" x2="0" y2="1">
        <stop offset="0" stop-color="#33512f"/>
        <stop offset="0.35" stop-color="#22331f"/>
        <stop offset="1" stop-color="#0f1912"/>
      </linearGradient>
      <radialGradient id="sunH" cx="0.4" cy="0.06" r="0.5">
        <stop offset="0" stop-color="#f2d49a" stop-opacity="0.85"/>
        <stop offset="0.5" stop-color="#e0a766" stop-opacity="0.25"/>
        <stop offset="1" stop-color="#e0a766" stop-opacity="0"/>
      </radialGradient>
      <linearGradient id="mistH" x1="0" y1="0" x2="0" y2="1">
        <stop offset="0" stop-color="#9fb083" stop-opacity="0"/>
        <stop offset="1" stop-color="#c9d3b4" stop-opacity="0.28"/>
      </linearGradient>
    </defs>
<rect width="800" height="1000" fill="url(#skyH)"/>
<rect width="800" height="1000" fill="url(#sunH)"/>
<polygon points="300,-40 -100,1000 -66,1000" fill="#f0d8a4" opacity="0.05"/>
<polygon points="300,-40 -5,1000 43,1000" fill="#f0d8a4" opacity="0.08"/>
<polygon points="300,-40 90,1000 152,1000" fill="#f0d8a4" opacity="0.05"/>
<polygon points="300,-40 185,1000 219,1000" fill="#f0d8a4" opacity="0.08"/>
<polygon points="300,-40 280,1000 328,1000" fill="#f0d8a4" opacity="0.05"/>
<polygon points="300,-40 375,1000 437,1000" fill="#f0d8a4" opacity="0.08"/>
<polygon points="300,-40 470,1000 504,1000" fill="#f0d8a4" opacity="0.05"/>
<polygon points="300,-40 565,1000 613,1000" fill="#f0d8a4" opacity="0.08"/>
<polygon points="300,-40 660,1000 722,1000" fill="#f0d8a4" opacity="0.05"/>
<polygon points="300,-40 755,1000 789,1000" fill="#f0d8a4" opacity="0.08"/>
<polygon points="300,-40 850,1000 898,1000" fill="#f0d8a4" opacity="0.05"/>
<circle cx="133.1" cy="31.8" r="89.9" fill="#1c2c1b" opacity="0.90"/>
<circle cx="109.2" cy="58.6" r="116.6" fill="#1c2c1b" opacity="0.90"/>
<circle cx="121.1" cy="50.1" r="109.2" fill="#1c2c1b" opacity="0.90"/>
<circle cx="156.2" cy="142.7" r="92.7" fill="#1c2c1b" opacity="0.90"/>
<circle cx="168.7" cy="57.4" r="133.8" fill="#1c2c1b" opacity="0.90"/>
<circle cx="214.8" cy="71.5" r="81.5" fill="#1c2c1b" opacity="0.90"/>
<circle cx="121.2" cy="60.6" r="133.7" fill="#1c2c1b" opacity="0.90"/>
<circle cx="498.5" cy="54.7" r="105.1" fill="#1a2a19" opacity="0.90"/>
<circle cx="582.4" cy="-3.8" r="118.7" fill="#1a2a19" opacity="0.90"/>
<circle cx="488.7" cy="59.6" r="150.9" fill="#1a2a19" opacity="0.90"/>
<circle cx="429.3" cy="59.4" r="126.7" fill="#1a2a19" opacity="0.90"/>
<circle cx="494.2" cy="76.9" r="146.7" fill="#1a2a19" opacity="0.90"/>
<circle cx="578.0" cy="115.0" r="121.1" fill="#1a2a19" opacity="0.90"/>
<circle cx="597.5" cy="62.0" r="153.9" fill="#1a2a19" opacity="0.90"/>
<circle cx="741.7" cy="188.4" r="76.9" fill="#1c2c1b" opacity="0.85"/>
<circle cx="789.9" cy="125.5" r="132.5" fill="#1c2c1b" opacity="0.85"/>
<circle cx="731.1" cy="143.2" r="108.0" fill="#1c2c1b" opacity="0.85"/>
<circle cx="775.8" cy="95.9" r="105.0" fill="#1c2c1b" opacity="0.85"/>
<circle cx="769.2" cy="107.8" r="133.9" fill="#1c2c1b" opacity="0.85"/>
<circle cx="793.0" cy="184.9" r="128.2" fill="#1c2c1b" opacity="0.85"/>
<circle cx="734.7" cy="155.8" r="77.4" fill="#1c2c1b" opacity="0.85"/>
<path d="M114,1000 C105,500 108,280 112,140 C115,280 118,500 126,1000 Z" fill="#16241696"/>
<path d="M652,1000 C660,500 664,280 668,140 C672,280 676,500 668,1000 Z" fill="#152214aa"/>
<path d="M390,1000 C390,500 395,280 400,140 C405,280 410,500 410,1000 Z" fill="#101b0f"/>
<path d="M237,1000 C232,500 239,280 246,140 C252,280 258,500 263,1000 Z" fill="#0d160c"/>
<path d="M70.0,1010.0 Q226.7,898.9 152.7,721.6" fill="none" stroke="#24361f" stroke-width="3.3" stroke-linecap="round" opacity="0.95"/>
<path d="M91.2,993.8 Q103.1,983.2 112.3,1017.7" fill="none" stroke="#24361f" stroke-width="2.2" stroke-linecap="round" opacity="0.95"/>
<path d="M91.2,993.8 Q103.1,983.2 70.1,969.9" fill="none" stroke="#24361f" stroke-width="2.2" stroke-linecap="round" opacity="0.95"/>
<path d="M110.1,976.9 Q120.0,965.9 132.1,996.9" fill="none" stroke="#24361f" stroke-width="2.2" stroke-linecap="round" opacity="0.95"/>
<path d="M110.1,976.9 Q120.0,965.9 88.1,956.9" fill="none" stroke="#24361f" stroke-width="2.2" stroke-linecap="round" opacity="0.95"/>
<path d="M126.6,959.3 Q134.6,948.2 148.9,975.4" fill="none" stroke="#24361f" stroke-width="2.2" stroke-linecap="round" opacity="0.95"/>
<path d="M126.6,959.3 Q134.6,948.2 104.2,943.2" fill="none" stroke="#24361f" stroke-width="2.2" stroke-linecap="round" opacity="0.95"/>
<path d="M140.7,941.1 Q146.9,930.0 162.9,953.6" fill="none" stroke="#24361f" stroke-width="2.2" stroke-linecap="round" opacity="0.95"/>
<path d="M140.7,941.1 Q146.9,930.0 118.5,928.7" fill="none" stroke="#24361f" stroke-width="2.2" stroke-linecap="round" opacity="0.95"/>
<path d="M152.5,922.2 Q157.1,911.5 173.9,931.3" fill="none" stroke="#24361f" stroke-width="2.2" stroke-linecap="round" opacity="0.95"/>
<path d="M152.5,922.2 Q157.1,911.5 131.1,913.1" fill="none" stroke="#24361f" stroke-width="2.2" stroke-linecap="round" opacity="0.95"/>
<path d="M161.9,902.6 Q165.1,892.5 182.1,908.9" fill="none" stroke="#24361f" stroke-width="2.2" stroke-linecap="round" opacity="0.95"/>
<path d="M161.9,902.6 Q165.1,892.5 141.7,896.4" fill="none" stroke="#24361f" stroke-width="2.2" stroke-linecap="round" opacity="0.95"/>
<path d="M169.0,882.3 Q170.9,873.0 187.6,886.2" fill="none" stroke="#24361f" stroke-width="2.2" stroke-linecap="round" opacity="0.95"/>
<path d="M169.0,882.3 Q170.9,873.0 150.4,878.5" fill="none" stroke="#24361f" stroke-width="2.2" stroke-linecap="round" opacity="0.95"/>
<path d="M173.8,861.4 Q174.7,853.0 190.5,863.4" fill="none" stroke="#24361f" stroke-width="2.2" stroke-linecap="round" opacity="0.95"/>
<path d="M173.8,861.4 Q174.7,853.0 157.0,859.5" fill="none" stroke="#24361f" stroke-width="2.2" stroke-linecap="round" opacity="0.95"/>
<path d="M176.1,839.8 Q176.4,832.4 190.8,840.3" fill="none" stroke="#24361f" stroke-width="2.2" stroke-linecap="round" opacity="0.95"/>
<path d="M176.1,839.8 Q176.4,832.4 161.4,839.3" fill="none" stroke="#24361f" stroke-width="2.2" stroke-linecap="round" opacity="0.95"/>
<path d="M176.1,817.5 Q175.9,811.2 188.7,817.1" fill="none" stroke="#24361f" stroke-width="2.2" stroke-linecap="round" opacity="0.95"/>
<path d="M176.1,817.5 Q175.9,811.2 163.6,817.9" fill="none" stroke="#24361f" stroke-width="2.2" stroke-linecap="round" opacity="0.95"/>
<path d="M173.8,794.6 Q173.3,789.4 184.2,793.5" fill="none" stroke="#24361f" stroke-width="2.2" stroke-linecap="round" opacity="0.95"/>
<path d="M173.8,794.6 Q173.3,789.4 163.4,795.6" fill="none" stroke="#24361f" stroke-width="2.2" stroke-linecap="round" opacity="0.95"/>
<path d="M169.1,770.9 Q168.5,766.8 177.3,769.6" fill="none" stroke="#24361f" stroke-width="2.2" stroke-linecap="round" opacity="0.95"/>
<path d="M169.1,770.9 Q168.5,766.8 160.9,772.2" fill="none" stroke="#24361f" stroke-width="2.2" stroke-linecap="round" opacity="0.95"/>
<path d="M162.1,746.6 Q161.5,743.6 168.1,745.4" fill="none" stroke="#24361f" stroke-width="2.2" stroke-linecap="round" opacity="0.95"/>
<path d="M162.1,746.6 Q161.5,743.6 156.1,747.9" fill="none" stroke="#24361f" stroke-width="2.2" stroke-linecap="round" opacity="0.95"/>
<path d="M760.0,1015.0 Q599.5,909.4 667.3,729.7" fill="none" stroke="#22331d" stroke-width="3.3" stroke-linecap="round" opacity="0.95"/>
<path d="M738.2,999.5 Q725.9,989.4 758.5,974.9" fill="none" stroke="#22331d" stroke-width="2.2" stroke-linecap="round" opacity="0.95"/>
<path d="M738.2,999.5 Q725.9,989.4 718.0,1024.2" fill="none" stroke="#22331d" stroke-width="2.2" stroke-linecap="round" opacity="0.95"/>
<path d="M718.8,983.3 Q708.4,972.7 740.1,962.6" fill="none" stroke="#22331d" stroke-width="2.2" stroke-linecap="round" opacity="0.95"/>
<path d="M718.8,983.3 Q708.4,972.7 697.5,1004.1" fill="none" stroke="#22331d" stroke-width="2.2" stroke-linecap="round" opacity="0.95"/>
<path d="M701.7,966.3 Q693.3,955.4 723.5,949.5" fill="none" stroke="#22331d" stroke-width="2.2" stroke-linecap="round" opacity="0.95"/>
<path d="M701.7,966.3 Q693.3,955.4 679.9,983.2" fill="none" stroke="#22331d" stroke-width="2.2" stroke-linecap="round" opacity="0.95"/>
<path d="M686.9,948.6 Q680.3,937.7 708.7,935.4" fill="none" stroke="#22331d" stroke-width="2.2" stroke-linecap="round" opacity="0.95"/>
<path d="M686.9,948.6 Q680.3,937.7 665.2,961.8" fill="none" stroke="#22331d" stroke-width="2.2" stroke-linecap="round" opacity="0.95"/>
<path d="M674.5,930.1 Q669.6,919.6 695.6,920.3" fill="none" stroke="#22331d" stroke-width="2.2" stroke-linecap="round" opacity="0.95"/>
<path d="M674.5,930.1 Q669.6,919.6 653.4,939.9" fill="none" stroke="#22331d" stroke-width="2.2" stroke-linecap="round" opacity="0.95"/>
<path d="M664.4,910.9 Q660.9,900.9 684.4,904.0" fill="none" stroke="#22331d" stroke-width="2.2" stroke-linecap="round" opacity="0.95"/>
<path d="M664.4,910.9 Q660.9,900.9 644.4,917.7" fill="none" stroke="#22331d" stroke-width="2.2" stroke-linecap="round" opacity="0.95"/>
<path d="M656.6,890.9 Q654.4,881.6 675.1,886.5" fill="none" stroke="#22331d" stroke-width="2.2" stroke-linecap="round" opacity="0.95"/>
<path d="M656.6,890.9 Q654.4,881.6 638.1,895.3" fill="none" stroke="#22331d" stroke-width="2.2" stroke-linecap="round" opacity="0.95"/>
<path d="M651.1,870.1 Q649.9,861.8 667.8,867.7" fill="none" stroke="#22331d" stroke-width="2.2" stroke-linecap="round" opacity="0.95"/>
<path d="M651.1,870.1 Q649.9,861.8 634.4,872.5" fill="none" stroke="#22331d" stroke-width="2.2" stroke-linecap="round" opacity="0.95"/>
<path d="M648.0,848.6 Q647.5,841.3 662.7,847.7" fill="none" stroke="#22331d" stroke-width="2.2" stroke-linecap="round" opacity="0.95"/>
<path d="M648.0,848.6 Q647.5,841.3 633.3,849.5" fill="none" stroke="#22331d" stroke-width="2.2" stroke-linecap="round" opacity="0.95"/>
<path d="M647.2,826.3 Q647.3,820.1 659.8,826.5" fill="none" stroke="#22331d" stroke-width="2.2" stroke-linecap="round" opacity="0.95"/>
<path d="M647.2,826.3 Q647.3,820.1 634.6,826.2" fill="none" stroke="#22331d" stroke-width="2.2" stroke-linecap="round" opacity="0.95"/>
<path d="M648.7,803.3 Q649.1,798.1 659.1,804.1" fill="none" stroke="#22331d" stroke-width="2.2" stroke-linecap="round" opacity="0.95"/>
<path d="M648.7,803.3 Q649.1,798.1 638.3,802.5" fill="none" stroke="#22331d" stroke-width="2.2" stroke-linecap="round" opacity="0.95"/>
<path d="M652.6,779.5 Q653.1,775.4 660.8,780.6" fill="none" stroke="#22331d" stroke-width="2.2" stroke-linecap="round" opacity="0.95"/>
<path d="M652.6,779.5 Q653.1,775.4 644.4,778.4" fill="none" stroke="#22331d" stroke-width="2.2" stroke-linecap="round" opacity="0.95"/>
<path d="M658.8,755.0 Q659.3,752.0 664.8,756.1" fill="none" stroke="#22331d" stroke-width="2.2" stroke-linecap="round" opacity="0.95"/>
<path d="M658.8,755.0 Q659.3,752.0 652.7,753.8" fill="none" stroke="#22331d" stroke-width="2.2" stroke-linecap="round" opacity="0.95"/>
<path d="M250.0,1025.0 Q343.2,904.1 277.2,766.4" fill="none" stroke="#33502c" stroke-width="2.8" stroke-linecap="round" opacity="0.90"/>
<path d="M262.5,1007.6 Q269.7,996.1 285.6,1022.1" fill="none" stroke="#33502c" stroke-width="1.9" stroke-linecap="round" opacity="0.90"/>
<path d="M262.5,1007.6 Q269.7,996.1 239.4,993.2" fill="none" stroke="#33502c" stroke-width="1.9" stroke-linecap="round" opacity="0.90"/>
<path d="M273.4,990.1 Q279.1,978.7 296.1,1001.5" fill="none" stroke="#33502c" stroke-width="1.9" stroke-linecap="round" opacity="0.90"/>
<path d="M273.4,990.1 Q279.1,978.7 250.6,978.7" fill="none" stroke="#33502c" stroke-width="1.9" stroke-linecap="round" opacity="0.90"/>
<path d="M282.6,972.4 Q286.9,961.4 304.6,981.0" fill="none" stroke="#33502c" stroke-width="1.9" stroke-linecap="round" opacity="0.90"/>
<path d="M282.6,972.4 Q286.9,961.4 260.6,963.8" fill="none" stroke="#33502c" stroke-width="1.9" stroke-linecap="round" opacity="0.90"/>
<path d="M290.2,954.5 Q293.4,944.1 311.2,960.8" fill="none" stroke="#33502c" stroke-width="1.9" stroke-linecap="round" opacity="0.90"/>
<path d="M290.2,954.5 Q293.4,944.1 269.3,948.3" fill="none" stroke="#33502c" stroke-width="1.9" stroke-linecap="round" opacity="0.90"/>
<path d="M296.2,936.5 Q298.3,926.7 315.9,940.7" fill="none" stroke="#33502c" stroke-width="1.9" stroke-linecap="round" opacity="0.90"/>
<path d="M296.2,936.5 Q298.3,926.7 276.6,932.3" fill="none" stroke="#33502c" stroke-width="1.9" stroke-linecap="round" opacity="0.90"/>
<path d="M300.6,918.3 Q301.9,909.2 318.7,920.8" fill="none" stroke="#33502c" stroke-width="1.9" stroke-linecap="round" opacity="0.90"/>
<path d="M300.6,918.3 Q301.9,909.2 282.5,915.8" fill="none" stroke="#33502c" stroke-width="1.9" stroke-linecap="round" opacity="0.90"/>
<path d="M303.4,899.9 Q304.0,891.7 319.8,901.1" fill="none" stroke="#33502c" stroke-width="1.9" stroke-linecap="round" opacity="0.90"/>
<path d="M303.4,899.9 Q304.0,891.7 286.9,898.7" fill="none" stroke="#33502c" stroke-width="1.9" stroke-linecap="round" opacity="0.90"/>
<path d="M304.5,881.3 Q304.6,874.0 319.2,881.5" fill="none" stroke="#33502c" stroke-width="1.9" stroke-linecap="round" opacity="0.90"/>
<path d="M304.5,881.3 Q304.6,874.0 289.8,881.2" fill="none" stroke="#33502c" stroke-width="1.9" stroke-linecap="round" opacity="0.90"/>
<path d="M304.0,862.6 Q303.7,856.2 316.9,862.0" fill="none" stroke="#33502c" stroke-width="1.9" stroke-linecap="round" opacity="0.90"/>
<path d="M304.0,862.6 Q303.7,856.2 291.1,863.2" fill="none" stroke="#33502c" stroke-width="1.9" stroke-linecap="round" opacity="0.90"/>
<path d="M301.9,843.7 Q301.4,838.2 313.0,842.7" fill="none" stroke="#33502c" stroke-width="1.9" stroke-linecap="round" opacity="0.90"/>
<path d="M301.9,843.7 Q301.4,838.2 290.8,844.8" fill="none" stroke="#33502c" stroke-width="1.9" stroke-linecap="round" opacity="0.90"/>
<path d="M298.1,824.6 Q297.5,820.0 307.4,823.4" fill="none" stroke="#33502c" stroke-width="1.9" stroke-linecap="round" opacity="0.90"/>
<path d="M298.1,824.6 Q297.5,820.0 288.9,825.9" fill="none" stroke="#33502c" stroke-width="1.9" stroke-linecap="round" opacity="0.90"/>
<path d="M292.8,805.4 Q292.1,801.7 300.2,804.1" fill="none" stroke="#33502c" stroke-width="1.9" stroke-linecap="round" opacity="0.90"/>
<path d="M292.8,805.4 Q292.1,801.7 285.3,806.8" fill="none" stroke="#33502c" stroke-width="1.9" stroke-linecap="round" opacity="0.90"/>
<path d="M285.8,786.0 Q285.2,783.2 291.4,784.8" fill="none" stroke="#33502c" stroke-width="1.9" stroke-linecap="round" opacity="0.90"/>
<path d="M285.8,786.0 Q285.2,783.2 280.1,787.2" fill="none" stroke="#33502c" stroke-width="1.9" stroke-linecap="round" opacity="0.90"/>
<path d="M560.0,1025.0 Q467.4,909.0 533.9,776.4" fill="none" stroke="#31492b" stroke-width="2.8" stroke-linecap="round" opacity="0.90"/>
<path d="M547.6,1008.3 Q540.2,996.9 570.4,993.6" fill="none" stroke="#31492b" stroke-width="1.9" stroke-linecap="round" opacity="0.90"/>
<path d="M547.6,1008.3 Q540.2,996.9 524.7,1023.1" fill="none" stroke="#31492b" stroke-width="1.9" stroke-linecap="round" opacity="0.90"/>
<path d="M536.8,991.5 Q530.9,980.2 559.4,979.8" fill="none" stroke="#31492b" stroke-width="1.9" stroke-linecap="round" opacity="0.90"/>
<path d="M536.8,991.5 Q530.9,980.2 514.2,1003.2" fill="none" stroke="#31492b" stroke-width="1.9" stroke-linecap="round" opacity="0.90"/>
<path d="M527.6,974.5 Q523.2,963.6 549.5,965.7" fill="none" stroke="#31492b" stroke-width="1.9" stroke-linecap="round" opacity="0.90"/>
<path d="M527.6,974.5 Q523.2,963.6 505.7,983.4" fill="none" stroke="#31492b" stroke-width="1.9" stroke-linecap="round" opacity="0.90"/>
<path d="M520.1,957.4 Q516.9,946.9 541.0,951.0" fill="none" stroke="#31492b" stroke-width="1.9" stroke-linecap="round" opacity="0.90"/>
<path d="M520.1,957.4 Q516.9,946.9 499.2,963.8" fill="none" stroke="#31492b" stroke-width="1.9" stroke-linecap="round" opacity="0.90"/>
<path d="M514.1,940.0 Q512.0,930.2 533.7,935.7" fill="none" stroke="#31492b" stroke-width="1.9" stroke-linecap="round" opacity="0.90"/>
<path d="M514.1,940.0 Q512.0,930.2 494.5,944.3" fill="none" stroke="#31492b" stroke-width="1.9" stroke-linecap="round" opacity="0.90"/>
<path d="M509.8,922.5 Q508.6,913.5 527.9,920.0" fill="none" stroke="#31492b" stroke-width="1.9" stroke-linecap="round" opacity="0.90"/>
<path d="M509.8,922.5 Q508.6,913.5 491.7,925.1" fill="none" stroke="#31492b" stroke-width="1.9" stroke-linecap="round" opacity="0.90"/>
<path d="M507.2,904.9 Q506.6,896.6 523.6,903.7" fill="none" stroke="#31492b" stroke-width="1.9" stroke-linecap="round" opacity="0.90"/>
<path d="M507.2,904.9 Q506.6,896.6 490.7,906.0" fill="none" stroke="#31492b" stroke-width="1.9" stroke-linecap="round" opacity="0.90"/>
<path d="M506.1,887.0 Q506.0,879.7 520.8,886.9" fill="none" stroke="#31492b" stroke-width="1.9" stroke-linecap="round" opacity="0.90"/>
<path d="M506.1,887.0 Q506.0,879.7 491.4,887.2" fill="none" stroke="#31492b" stroke-width="1.9" stroke-linecap="round" opacity="0.90"/>
<path d="M506.7,869.0 Q507.0,862.5 519.6,869.6" fill="none" stroke="#31492b" stroke-width="1.9" stroke-linecap="round" opacity="0.90"/>
<path d="M506.7,869.0 Q507.0,862.5 493.8,868.4" fill="none" stroke="#31492b" stroke-width="1.9" stroke-linecap="round" opacity="0.90"/>
<path d="M508.9,850.8 Q509.4,845.3 519.9,851.9" fill="none" stroke="#31492b" stroke-width="1.9" stroke-linecap="round" opacity="0.90"/>
<path d="M508.9,850.8 Q509.4,845.3 497.8,849.7" fill="none" stroke="#31492b" stroke-width="1.9" stroke-linecap="round" opacity="0.90"/>
<path d="M512.7,832.5 Q513.4,827.8 521.9,833.8" fill="none" stroke="#31492b" stroke-width="1.9" stroke-linecap="round" opacity="0.90"/>
<path d="M512.7,832.5 Q513.4,827.8 503.4,831.1" fill="none" stroke="#31492b" stroke-width="1.9" stroke-linecap="round" opacity="0.90"/>
<path d="M518.1,813.9 Q518.8,810.2 525.6,815.4" fill="none" stroke="#31492b" stroke-width="1.9" stroke-linecap="round" opacity="0.90"/>
<path d="M518.1,813.9 Q518.8,810.2 510.7,812.5" fill="none" stroke="#31492b" stroke-width="1.9" stroke-linecap="round" opacity="0.90"/>
<path d="M525.2,795.2 Q525.8,792.4 530.8,796.5" fill="none" stroke="#31492b" stroke-width="1.9" stroke-linecap="round" opacity="0.90"/>
<path d="M525.2,795.2 Q525.8,792.4 519.5,793.9" fill="none" stroke="#31492b" stroke-width="1.9" stroke-linecap="round" opacity="0.90"/>
<path d="M410.0,1030.0 Q450.0,925.0 410.0,820.0" fill="none" stroke="#4a6a3c" stroke-width="2.3" stroke-linecap="round" opacity="0.85"/>
<path d="M415.3,1015.0 Q418.7,1003.8 437.8,1021.9" fill="none" stroke="#4a6a3c" stroke-width="1.6" stroke-linecap="round" opacity="0.85"/>
<path d="M415.3,1015.0 Q418.7,1003.8 392.8,1008.1" fill="none" stroke="#4a6a3c" stroke-width="1.6" stroke-linecap="round" opacity="0.85"/>
<path d="M419.8,1000.0 Q422.3,989.3 441.2,1005.1" fill="none" stroke="#4a6a3c" stroke-width="1.6" stroke-linecap="round" opacity="0.85"/>
<path d="M419.8,1000.0 Q422.3,989.3 398.4,994.9" fill="none" stroke="#4a6a3c" stroke-width="1.6" stroke-linecap="round" opacity="0.85"/>
<path d="M423.5,985.0 Q425.3,974.9 443.6,988.6" fill="none" stroke="#4a6a3c" stroke-width="1.6" stroke-linecap="round" opacity="0.85"/>
<path d="M423.5,985.0 Q425.3,974.9 403.3,981.4" fill="none" stroke="#4a6a3c" stroke-width="1.6" stroke-linecap="round" opacity="0.85"/>
<path d="M426.3,970.0 Q427.5,960.6 445.2,972.4" fill="none" stroke="#4a6a3c" stroke-width="1.6" stroke-linecap="round" opacity="0.85"/>
<path d="M426.3,970.0 Q427.5,960.6 407.5,967.6" fill="none" stroke="#4a6a3c" stroke-width="1.6" stroke-linecap="round" opacity="0.85"/>
<path d="M428.4,955.0 Q429.1,946.3 445.8,956.4" fill="none" stroke="#4a6a3c" stroke-width="1.6" stroke-linecap="round" opacity="0.85"/>
<path d="M428.4,955.0 Q429.1,946.3 410.9,953.6" fill="none" stroke="#4a6a3c" stroke-width="1.6" stroke-linecap="round" opacity="0.85"/>
<path d="M429.6,940.0 Q429.9,932.0 445.6,940.6" fill="none" stroke="#4a6a3c" stroke-width="1.6" stroke-linecap="round" opacity="0.85"/>
<path d="M429.6,940.0 Q429.9,932.0 413.6,939.4" fill="none" stroke="#4a6a3c" stroke-width="1.6" stroke-linecap="round" opacity="0.85"/>
<path d="M430.0,925.0 Q430.0,917.8 444.5,925.0" fill="none" stroke="#4a6a3c" stroke-width="1.6" stroke-linecap="round" opacity="0.85"/>
<path d="M430.0,925.0 Q430.0,917.8 415.5,925.0" fill="none" stroke="#4a6a3c" stroke-width="1.6" stroke-linecap="round" opacity="0.85"/>
<path d="M429.6,910.0 Q429.4,903.5 442.6,909.6" fill="none" stroke="#4a6a3c" stroke-width="1.6" stroke-linecap="round" opacity="0.85"/>
<path d="M429.6,910.0 Q429.4,903.5 416.6,910.4" fill="none" stroke="#4a6a3c" stroke-width="1.6" stroke-linecap="round" opacity="0.85"/>
<path d="M428.4,895.0 Q428.0,889.3 439.8,894.2" fill="none" stroke="#4a6a3c" stroke-width="1.6" stroke-linecap="round" opacity="0.85"/>
<path d="M428.4,895.0 Q428.0,889.3 416.9,895.8" fill="none" stroke="#4a6a3c" stroke-width="1.6" stroke-linecap="round" opacity="0.85"/>
<path d="M426.3,880.0 Q425.9,875.0 436.3,879.1" fill="none" stroke="#4a6a3c" stroke-width="1.6" stroke-linecap="round" opacity="0.85"/>
<path d="M426.3,880.0 Q425.9,875.0 416.4,880.9" fill="none" stroke="#4a6a3c" stroke-width="1.6" stroke-linecap="round" opacity="0.85"/>
<path d="M423.5,865.0 Q423.0,860.8 431.9,864.0" fill="none" stroke="#4a6a3c" stroke-width="1.6" stroke-linecap="round" opacity="0.85"/>
<path d="M423.5,865.0 Q423.0,860.8 415.0,866.0" fill="none" stroke="#4a6a3c" stroke-width="1.6" stroke-linecap="round" opacity="0.85"/>
<path d="M419.8,850.0 Q419.3,846.5 426.7,849.0" fill="none" stroke="#4a6a3c" stroke-width="1.6" stroke-linecap="round" opacity="0.85"/>
<path d="M419.8,850.0 Q419.3,846.5 412.9,851.0" fill="none" stroke="#4a6a3c" stroke-width="1.6" stroke-linecap="round" opacity="0.85"/>
<path d="M415.3,835.0 Q414.8,832.3 420.7,834.1" fill="none" stroke="#4a6a3c" stroke-width="1.6" stroke-linecap="round" opacity="0.85"/>
<path d="M415.3,835.0 Q414.8,832.3 409.9,835.9" fill="none" stroke="#4a6a3c" stroke-width="1.6" stroke-linecap="round" opacity="0.85"/>
<path d="M150.0,1030.0 Q246.6,969.4 211.6,860.9" fill="none" stroke="#5c7d49" stroke-width="2.0" stroke-linecap="round" opacity="0.70"/>
<path d="M163.1,1021.1 Q171.3,1014.7 175.9,1037.4" fill="none" stroke="#5c7d49" stroke-width="1.4" stroke-linecap="round" opacity="0.70"/>
<path d="M163.1,1021.1 Q171.3,1014.7 150.3,1004.8" fill="none" stroke="#5c7d49" stroke-width="1.4" stroke-linecap="round" opacity="0.70"/>
<path d="M174.9,1011.7 Q181.8,1004.9 188.5,1025.6" fill="none" stroke="#5c7d49" stroke-width="1.4" stroke-linecap="round" opacity="0.70"/>
<path d="M174.9,1011.7 Q181.8,1004.9 161.3,997.8" fill="none" stroke="#5c7d49" stroke-width="1.4" stroke-linecap="round" opacity="0.70"/>
<path d="M185.3,1001.8 Q191.1,994.8 199.4,1013.3" fill="none" stroke="#5c7d49" stroke-width="1.4" stroke-linecap="round" opacity="0.70"/>
<path d="M185.3,1001.8 Q191.1,994.8 171.3,990.4" fill="none" stroke="#5c7d49" stroke-width="1.4" stroke-linecap="round" opacity="0.70"/>
<path d="M194.4,991.4 Q199.0,984.4 208.6,1000.6" fill="none" stroke="#5c7d49" stroke-width="1.4" stroke-linecap="round" opacity="0.70"/>
<path d="M194.4,991.4 Q199.0,984.4 180.3,982.3" fill="none" stroke="#5c7d49" stroke-width="1.4" stroke-linecap="round" opacity="0.70"/>
<path d="M202.2,980.6 Q205.7,973.6 216.1,987.5" fill="none" stroke="#5c7d49" stroke-width="1.4" stroke-linecap="round" opacity="0.70"/>
<path d="M202.2,980.6 Q205.7,973.6 188.3,973.6" fill="none" stroke="#5c7d49" stroke-width="1.4" stroke-linecap="round" opacity="0.70"/>
<path d="M208.6,969.2 Q211.1,962.5 222.0,974.3" fill="none" stroke="#5c7d49" stroke-width="1.4" stroke-linecap="round" opacity="0.70"/>
<path d="M208.6,969.2 Q211.1,962.5 195.2,964.2" fill="none" stroke="#5c7d49" stroke-width="1.4" stroke-linecap="round" opacity="0.70"/>
<path d="M213.7,957.4 Q215.4,951.1 226.2,960.8" fill="none" stroke="#5c7d49" stroke-width="1.4" stroke-linecap="round" opacity="0.70"/>
<path d="M213.7,957.4 Q215.4,951.1 201.1,954.0" fill="none" stroke="#5c7d49" stroke-width="1.4" stroke-linecap="round" opacity="0.70"/>
<path d="M217.4,945.1 Q218.4,939.3 228.9,947.1" fill="none" stroke="#5c7d49" stroke-width="1.4" stroke-linecap="round" opacity="0.70"/>
<path d="M217.4,945.1 Q218.4,939.3 205.9,943.1" fill="none" stroke="#5c7d49" stroke-width="1.4" stroke-linecap="round" opacity="0.70"/>
<path d="M219.8,932.3 Q220.3,927.1 230.2,933.2" fill="none" stroke="#5c7d49" stroke-width="1.4" stroke-linecap="round" opacity="0.70"/>
<path d="M219.8,932.3 Q220.3,927.1 209.4,931.3" fill="none" stroke="#5c7d49" stroke-width="1.4" stroke-linecap="round" opacity="0.70"/>
<path d="M220.8,919.0 Q220.9,914.4 230.0,919.1" fill="none" stroke="#5c7d49" stroke-width="1.4" stroke-linecap="round" opacity="0.70"/>
<path d="M220.8,919.0 Q220.9,914.4 211.7,918.8" fill="none" stroke="#5c7d49" stroke-width="1.4" stroke-linecap="round" opacity="0.70"/>
<path d="M220.5,905.2 Q220.3,901.2 228.4,904.8" fill="none" stroke="#5c7d49" stroke-width="1.4" stroke-linecap="round" opacity="0.70"/>
<path d="M220.5,905.2 Q220.3,901.2 212.7,905.5" fill="none" stroke="#5c7d49" stroke-width="1.4" stroke-linecap="round" opacity="0.70"/>
<path d="M218.9,890.9 Q218.5,887.6 225.4,890.2" fill="none" stroke="#5c7d49" stroke-width="1.4" stroke-linecap="round" opacity="0.70"/>
<path d="M218.9,890.9 Q218.5,887.6 212.3,891.6" fill="none" stroke="#5c7d49" stroke-width="1.4" stroke-linecap="round" opacity="0.70"/>
<path d="M215.9,876.1 Q215.5,873.5 221.1,875.3" fill="none" stroke="#5c7d49" stroke-width="1.4" stroke-linecap="round" opacity="0.70"/>
<path d="M215.9,876.1 Q215.5,873.5 210.7,876.9" fill="none" stroke="#5c7d49" stroke-width="1.4" stroke-linecap="round" opacity="0.70"/>
<path d="M650.0,1032.0 Q553.4,971.4 588.4,862.9" fill="none" stroke="#587a46" stroke-width="2.0" stroke-linecap="round" opacity="0.70"/>
<path d="M636.9,1023.1 Q628.7,1016.7 649.7,1006.8" fill="none" stroke="#587a46" stroke-width="1.4" stroke-linecap="round" opacity="0.70"/>
<path d="M636.9,1023.1 Q628.7,1016.7 624.1,1039.4" fill="none" stroke="#587a46" stroke-width="1.4" stroke-linecap="round" opacity="0.70"/>
<path d="M625.1,1013.7 Q618.2,1006.9 638.7,999.8" fill="none" stroke="#587a46" stroke-width="1.4" stroke-linecap="round" opacity="0.70"/>
<path d="M625.1,1013.7 Q618.2,1006.9 611.5,1027.6" fill="none" stroke="#587a46" stroke-width="1.4" stroke-linecap="round" opacity="0.70"/>
<path d="M614.7,1003.8 Q608.9,996.8 628.7,992.4" fill="none" stroke="#587a46" stroke-width="1.4" stroke-linecap="round" opacity="0.70"/>
<path d="M614.7,1003.8 Q608.9,996.8 600.6,1015.3" fill="none" stroke="#587a46" stroke-width="1.4" stroke-linecap="round" opacity="0.70"/>
<path d="M605.6,993.4 Q601.0,986.4 619.7,984.3" fill="none" stroke="#587a46" stroke-width="1.4" stroke-linecap="round" opacity="0.70"/>
<path d="M605.6,993.4 Q601.0,986.4 591.4,1002.6" fill="none" stroke="#587a46" stroke-width="1.4" stroke-linecap="round" opacity="0.70"/>
<path d="M597.8,982.6 Q594.3,975.6 611.7,975.6" fill="none" stroke="#587a46" stroke-width="1.4" stroke-linecap="round" opacity="0.70"/>
<path d="M597.8,982.6 Q594.3,975.6 583.9,989.5" fill="none" stroke="#587a46" stroke-width="1.4" stroke-linecap="round" opacity="0.70"/>
<path d="M591.4,971.2 Q588.9,964.5 604.8,966.2" fill="none" stroke="#587a46" stroke-width="1.4" stroke-linecap="round" opacity="0.70"/>
<path d="M591.4,971.2 Q588.9,964.5 578.0,976.3" fill="none" stroke="#587a46" stroke-width="1.4" stroke-linecap="round" opacity="0.70"/>
<path d="M586.3,959.4 Q584.6,953.1 598.9,956.0" fill="none" stroke="#587a46" stroke-width="1.4" stroke-linecap="round" opacity="0.70"/>
<path d="M586.3,959.4 Q584.6,953.1 573.8,962.8" fill="none" stroke="#587a46" stroke-width="1.4" stroke-linecap="round" opacity="0.70"/>
<path d="M582.6,947.1 Q581.6,941.3 594.1,945.1" fill="none" stroke="#587a46" stroke-width="1.4" stroke-linecap="round" opacity="0.70"/>
<path d="M582.6,947.1 Q581.6,941.3 571.1,949.1" fill="none" stroke="#587a46" stroke-width="1.4" stroke-linecap="round" opacity="0.70"/>
<path d="M580.2,934.3 Q579.7,929.1 590.6,933.3" fill="none" stroke="#587a46" stroke-width="1.4" stroke-linecap="round" opacity="0.70"/>
<path d="M580.2,934.3 Q579.7,929.1 569.8,935.2" fill="none" stroke="#587a46" stroke-width="1.4" stroke-linecap="round" opacity="0.70"/>
<path d="M579.2,921.0 Q579.1,916.4 588.3,920.8" fill="none" stroke="#587a46" stroke-width="1.4" stroke-linecap="round" opacity="0.70"/>
<path d="M579.2,921.0 Q579.1,916.4 570.0,921.1" fill="none" stroke="#587a46" stroke-width="1.4" stroke-linecap="round" opacity="0.70"/>
<path d="M579.5,907.2 Q579.7,903.2 587.3,907.5" fill="none" stroke="#587a46" stroke-width="1.4" stroke-linecap="round" opacity="0.70"/>
<path d="M579.5,907.2 Q579.7,903.2 571.6,906.8" fill="none" stroke="#587a46" stroke-width="1.4" stroke-linecap="round" opacity="0.70"/>
<path d="M581.1,892.9 Q581.5,889.6 587.7,893.6" fill="none" stroke="#587a46" stroke-width="1.4" stroke-linecap="round" opacity="0.70"/>
<path d="M581.1,892.9 Q581.5,889.6 574.6,892.2" fill="none" stroke="#587a46" stroke-width="1.4" stroke-linecap="round" opacity="0.70"/>
<path d="M584.1,878.1 Q584.5,875.5 589.3,878.9" fill="none" stroke="#587a46" stroke-width="1.4" stroke-linecap="round" opacity="0.70"/>
<path d="M584.1,878.1 Q584.5,875.5 578.9,877.3" fill="none" stroke="#587a46" stroke-width="1.4" stroke-linecap="round" opacity="0.70"/>
<ellipse cx="315" cy="520" rx="16" ry="7" fill="#cbb87a" opacity="0.5" transform="rotate(35 315 520)"/>
<ellipse cx="300" cy="610" rx="16" ry="7" fill="#cbb87a" opacity="0.5" transform="rotate(35 300 610)"/>
<ellipse cx="340" cy="700" rx="16" ry="7" fill="#cbb87a" opacity="0.5" transform="rotate(35 340 700)"/>
<ellipse cx="280" cy="470" rx="16" ry="7" fill="#cbb87a" opacity="0.5" transform="rotate(35 280 470)"/>
<rect x="0" y="740" width="800" height="260" fill="url(#mistH)"/>
</svg>