<svg viewBox="0 0 800 1000" xmlns="http://www.w3.org/2000/svg" role="img" aria-label="A close view of the forest understory: ferns, a mossy log and small mushrooms in dappled light">
<defs>
      <linearGradient id="skyA" x1="0" y1="0" x2="0" y2="1">
        <stop offset="0" stop-color="#dfe7cf"/>
        <stop offset="0.4" stop-color="#c4d3ab"/>
        <stop offset="1" stop-color="#8ca071"/>
      </linearGradient>
      <radialGradient id="glowA" cx="0.68" cy="0.2" r="0.6">
        <stop offset="0" stop-color="#fbf3d8" stop-opacity="0.8"/>
        <stop offset="1" stop-color="#fbf3d8" stop-opacity="0"/>
      </radialGradient>
      <linearGradient id="floorA" x1="0" y1="0" x2="0" y2="1">
        <stop offset="0" stop-color="#4c6338"/>
        <stop offset="1" stop-color="#38492a"/>
      </linearGradient>
    </defs>
<rect width="800" height="1000" fill="url(#skyA)"/>
<rect width="800" height="1000" fill="url(#glowA)"/>
<polygon points="600,-40 -50,1000 -10,1000" fill="#fbf3d8" opacity="0.06"/>
<polygon points="600,-40 60,1000 120,1000" fill="#fbf3d8" opacity="0.09"/>
<polygon points="600,-40 170,1000 210,1000" fill="#fbf3d8" opacity="0.06"/>
<polygon points="600,-40 280,1000 340,1000" fill="#fbf3d8" opacity="0.09"/>
<polygon points="600,-40 390,1000 430,1000" fill="#fbf3d8" opacity="0.06"/>
<polygon points="600,-40 500,1000 560,1000" fill="#fbf3d8" opacity="0.09"/>
<polygon points="600,-40 610,1000 650,1000" fill="#fbf3d8" opacity="0.06"/>
<polygon points="600,-40 720,1000 780,1000" fill="#fbf3d8" opacity="0.09"/>
<polygon points="600,-40 830,1000 870,1000" fill="#fbf3d8" opacity="0.06"/>
<polygon points="600,-40 940,1000 1000,1000" fill="#fbf3d8" opacity="0.09"/>
<circle cx="100.0" cy="263.2" r="114.9" fill="#7d945f" opacity="0.55"/>
<circle cx="190.1" cy="352.0" r="89.3" fill="#7d945f" opacity="0.55"/>
<circle cx="107.0" cy="273.5" r="76.7" fill="#7d945f" opacity="0.55"/>
<circle cx="150.8" cy="325.3" r="76.0" fill="#7d945f" opacity="0.55"/>
<circle cx="140.5" cy="339.2" r="122.2" fill="#7d945f" opacity="0.55"/>
<circle cx="77.5" cy="292.3" r="93.9" fill="#7d945f" opacity="0.55"/>
<circle cx="133.9" cy="259.4" r="129.7" fill="#7d945f" opacity="0.55"/>
<circle cx="680.7" cy="283.5" r="86.1" fill="#748a58" opacity="0.50"/>
<circle cx="729.8" cy="309.3" r="110.5" fill="#748a58" opacity="0.50"/>
<circle cx="766.4" cy="197.6" r="136.3" fill="#748a58" opacity="0.50"/>
<circle cx="727.2" cy="313.6" r="96.7" fill="#748a58" opacity="0.50"/>
<circle cx="616.1" cy="316.3" r="93.1" fill="#748a58" opacity="0.50"/>
<circle cx="680.2" cy="213.0" r="153.0" fill="#748a58" opacity="0.50"/>
<circle cx="671.5" cy="275.2" r="136.0" fill="#748a58" opacity="0.50"/>
<circle cx="369.8" cy="191.6" r="72.4" fill="#88a06a" opacity="0.40"/>
<circle cx="452.5" cy="239.4" r="87.4" fill="#88a06a" opacity="0.40"/>
<circle cx="487.0" cy="243.2" r="95.5" fill="#88a06a" opacity="0.40"/>
<circle cx="376.4" cy="237.7" r="108.9" fill="#88a06a" opacity="0.40"/>
<circle cx="422.3" cy="251.2" r="101.0" fill="#88a06a" opacity="0.40"/>
<circle cx="491.8" cy="151.5" r="79.4" fill="#88a06a" opacity="0.40"/>
<circle cx="376.6" cy="230.5" r="67.6" fill="#88a06a" opacity="0.40"/>
<path d="M0,620 C220,560 560,660 800,600 L800,1000 L0,1000 Z" fill="url(#floorA)"/>
<g><rect x="70" y="660" width="470" height="70" rx="35" fill="#5a4a36"/><rect x="70" y="660" width="470" height="30" rx="15" fill="#6f8a4e" opacity="0.9"/><ellipse cx="70" cy="695" rx="24" ry="35" fill="#3f3527"/><ellipse cx="70" cy="695" rx="16" ry="26" fill="#5a4a36"/></g>
<g transform="translate(150,720.0) scale(1.5)"><path d="M-7,0 Q-6,20 -3,20 L3,20 Q6,20 7,0 Z" fill="#efe6cf"/><path d="M-16,2 Q0,-16 16,2 Q0,10 -16,2 Z" fill="#c67b52"/><ellipse cx="-5" cy="-3" rx="3" ry="2" fill="#e6b48c" opacity="0.8"/></g>
<g transform="translate(185,730.0) scale(1.1)"><path d="M-7,0 Q-6,20 -3,20 L3,20 Q6,20 7,0 Z" fill="#efe6cf"/><path d="M-16,2 Q0,-16 16,2 Q0,10 -16,2 Z" fill="#c67b52"/><ellipse cx="-5" cy="-3" rx="3" ry="2" fill="#e6b48c" opacity="0.8"/></g>
<g transform="translate(120,735.0) scale(0.9)"><path d="M-7,0 Q-6,20 -3,20 L3,20 Q6,20 7,0 Z" fill="#efe6cf"/><path d="M-16,2 Q0,-16 16,2 Q0,10 -16,2 Z" fill="#c67b52"/><ellipse cx="-5" cy="-3" rx="3" ry="2" fill="#e6b48c" opacity="0.8"/></g>
<path d="M60.0,1010.0 Q226.1,881.4 139.8,689.8" fill="none" stroke="#2f4726" stroke-width="3.5" stroke-linecap="round" opacity="0.95"/>
<path d="M82.4,991.3 Q94.6,979.6 105.8,1015.6" fill="none" stroke="#2f4726" stroke-width="2.4" stroke-linecap="round" opacity="0.95"/>
<path d="M82.4,991.3 Q94.6,979.6 59.1,967.0" fill="none" stroke="#2f4726" stroke-width="2.4" stroke-linecap="round" opacity="0.95"/>
<path d="M102.3,972.0 Q112.4,959.9 126.4,992.1" fill="none" stroke="#2f4726" stroke-width="2.4" stroke-linecap="round" opacity="0.95"/>
<path d="M102.3,972.0 Q112.4,959.9 78.2,951.8" fill="none" stroke="#2f4726" stroke-width="2.4" stroke-linecap="round" opacity="0.95"/>
<path d="M119.6,952.0 Q127.6,939.8 143.9,968.0" fill="none" stroke="#2f4726" stroke-width="2.4" stroke-linecap="round" opacity="0.95"/>
<path d="M119.6,952.0 Q127.6,939.8 95.3,935.9" fill="none" stroke="#2f4726" stroke-width="2.4" stroke-linecap="round" opacity="0.95"/>
<path d="M134.3,931.4 Q140.4,919.4 158.2,943.6" fill="none" stroke="#2f4726" stroke-width="2.4" stroke-linecap="round" opacity="0.95"/>
<path d="M134.3,931.4 Q140.4,919.4 110.4,919.1" fill="none" stroke="#2f4726" stroke-width="2.4" stroke-linecap="round" opacity="0.95"/>
<path d="M146.4,910.1 Q150.9,898.6 169.4,918.9" fill="none" stroke="#2f4726" stroke-width="2.4" stroke-linecap="round" opacity="0.95"/>
<path d="M146.4,910.1 Q150.9,898.6 123.5,901.2" fill="none" stroke="#2f4726" stroke-width="2.4" stroke-linecap="round" opacity="0.95"/>
<path d="M156.0,888.2 Q159.0,877.4 177.5,894.1" fill="none" stroke="#2f4726" stroke-width="2.4" stroke-linecap="round" opacity="0.95"/>
<path d="M156.0,888.2 Q159.0,877.4 134.5,882.3" fill="none" stroke="#2f4726" stroke-width="2.4" stroke-linecap="round" opacity="0.95"/>
<path d="M163.0,865.6 Q164.7,855.8 182.7,869.1" fill="none" stroke="#2f4726" stroke-width="2.4" stroke-linecap="round" opacity="0.95"/>
<path d="M163.0,865.6 Q164.7,855.8 143.3,862.1" fill="none" stroke="#2f4726" stroke-width="2.4" stroke-linecap="round" opacity="0.95"/>
<path d="M167.4,842.4 Q168.2,833.6 185.0,844.1" fill="none" stroke="#2f4726" stroke-width="2.4" stroke-linecap="round" opacity="0.95"/>
<path d="M167.4,842.4 Q168.2,833.6 149.8,840.8" fill="none" stroke="#2f4726" stroke-width="2.4" stroke-linecap="round" opacity="0.95"/>
<path d="M169.2,818.6 Q169.4,810.9 184.7,818.8" fill="none" stroke="#2f4726" stroke-width="2.4" stroke-linecap="round" opacity="0.95"/>
<path d="M169.2,818.6 Q169.4,810.9 153.8,818.4" fill="none" stroke="#2f4726" stroke-width="2.4" stroke-linecap="round" opacity="0.95"/>
<path d="M168.5,794.1 Q168.2,787.6 181.6,793.4" fill="none" stroke="#2f4726" stroke-width="2.4" stroke-linecap="round" opacity="0.95"/>
<path d="M168.5,794.1 Q168.2,787.6 155.4,794.8" fill="none" stroke="#2f4726" stroke-width="2.4" stroke-linecap="round" opacity="0.95"/>
<path d="M165.2,769.0 Q164.6,763.6 176.0,767.8" fill="none" stroke="#2f4726" stroke-width="2.4" stroke-linecap="round" opacity="0.95"/>
<path d="M165.2,769.0 Q164.6,763.6 154.4,770.2" fill="none" stroke="#2f4726" stroke-width="2.4" stroke-linecap="round" opacity="0.95"/>
<path d="M159.3,743.2 Q158.6,739.0 167.8,741.8" fill="none" stroke="#2f4726" stroke-width="2.4" stroke-linecap="round" opacity="0.95"/>
<path d="M159.3,743.2 Q158.6,739.0 150.9,744.7" fill="none" stroke="#2f4726" stroke-width="2.4" stroke-linecap="round" opacity="0.95"/>
<path d="M150.9,716.8 Q150.2,713.8 157.0,715.5" fill="none" stroke="#2f4726" stroke-width="2.4" stroke-linecap="round" opacity="0.95"/>
<path d="M150.9,716.8 Q150.2,713.8 144.7,718.2" fill="none" stroke="#2f4726" stroke-width="2.4" stroke-linecap="round" opacity="0.95"/>
<path d="M770.0,1015.0 Q599.6,892.2 679.0,697.8" fill="none" stroke="#2c4224" stroke-width="3.5" stroke-linecap="round" opacity="0.95"/>
<path d="M746.9,997.1 Q734.4,985.8 769.4,972.0" fill="none" stroke="#2c4224" stroke-width="2.4" stroke-linecap="round" opacity="0.95"/>
<path d="M746.9,997.1 Q734.4,985.8 724.4,1022.2" fill="none" stroke="#2c4224" stroke-width="2.4" stroke-linecap="round" opacity="0.95"/>
<path d="M726.4,978.5 Q715.9,966.7 749.8,957.5" fill="none" stroke="#2c4224" stroke-width="2.4" stroke-linecap="round" opacity="0.95"/>
<path d="M726.4,978.5 Q715.9,966.7 703.0,999.4" fill="none" stroke="#2c4224" stroke-width="2.4" stroke-linecap="round" opacity="0.95"/>
<path d="M708.4,959.1 Q700.0,947.2 732.2,942.2" fill="none" stroke="#2c4224" stroke-width="2.4" stroke-linecap="round" opacity="0.95"/>
<path d="M708.4,959.1 Q700.0,947.2 684.7,976.0" fill="none" stroke="#2c4224" stroke-width="2.4" stroke-linecap="round" opacity="0.95"/>
<path d="M693.0,939.0 Q686.5,927.3 716.5,926.0" fill="none" stroke="#2c4224" stroke-width="2.4" stroke-linecap="round" opacity="0.95"/>
<path d="M693.0,939.0 Q686.5,927.3 669.5,952.0" fill="none" stroke="#2c4224" stroke-width="2.4" stroke-linecap="round" opacity="0.95"/>
<path d="M680.1,918.2 Q675.4,906.8 702.8,908.6" fill="none" stroke="#2c4224" stroke-width="2.4" stroke-linecap="round" opacity="0.95"/>
<path d="M680.1,918.2 Q675.4,906.8 657.5,927.7" fill="none" stroke="#2c4224" stroke-width="2.4" stroke-linecap="round" opacity="0.95"/>
<path d="M669.8,896.6 Q666.5,885.9 691.1,890.1" fill="none" stroke="#2c4224" stroke-width="2.4" stroke-linecap="round" opacity="0.95"/>
<path d="M669.8,896.6 Q666.5,885.9 648.5,903.1" fill="none" stroke="#2c4224" stroke-width="2.4" stroke-linecap="round" opacity="0.95"/>
<path d="M662.0,874.3 Q660.0,864.5 681.6,870.3" fill="none" stroke="#2c4224" stroke-width="2.4" stroke-linecap="round" opacity="0.95"/>
<path d="M662.0,874.3 Q660.0,864.5 642.5,878.4" fill="none" stroke="#2c4224" stroke-width="2.4" stroke-linecap="round" opacity="0.95"/>
<path d="M656.8,851.3 Q655.8,842.5 674.4,849.2" fill="none" stroke="#2c4224" stroke-width="2.4" stroke-linecap="round" opacity="0.95"/>
<path d="M656.8,851.3 Q655.8,842.5 639.2,853.4" fill="none" stroke="#2c4224" stroke-width="2.4" stroke-linecap="round" opacity="0.95"/>
<path d="M654.1,827.5 Q653.8,819.8 669.6,826.9" fill="none" stroke="#2c4224" stroke-width="2.4" stroke-linecap="round" opacity="0.95"/>
<path d="M654.1,827.5 Q653.8,819.8 638.7,828.1" fill="none" stroke="#2c4224" stroke-width="2.4" stroke-linecap="round" opacity="0.95"/>
<path d="M654.0,803.0 Q654.2,796.5 667.2,803.4" fill="none" stroke="#2c4224" stroke-width="2.4" stroke-linecap="round" opacity="0.95"/>
<path d="M654.0,803.0 Q654.2,796.5 640.9,802.6" fill="none" stroke="#2c4224" stroke-width="2.4" stroke-linecap="round" opacity="0.95"/>
<path d="M656.5,777.8 Q657.0,772.4 667.3,778.8" fill="none" stroke="#2c4224" stroke-width="2.4" stroke-linecap="round" opacity="0.95"/>
<path d="M656.5,777.8 Q657.0,772.4 645.6,776.8" fill="none" stroke="#2c4224" stroke-width="2.4" stroke-linecap="round" opacity="0.95"/>
<path d="M661.4,751.9 Q662.1,747.6 669.9,753.2" fill="none" stroke="#2c4224" stroke-width="2.4" stroke-linecap="round" opacity="0.95"/>
<path d="M661.4,751.9 Q662.1,747.6 653.0,750.6" fill="none" stroke="#2c4224" stroke-width="2.4" stroke-linecap="round" opacity="0.95"/>
<path d="M669.0,725.2 Q669.6,722.1 675.1,726.4" fill="none" stroke="#2c4224" stroke-width="2.4" stroke-linecap="round" opacity="0.95"/>
<path d="M669.0,725.2 Q669.6,722.1 662.8,723.9" fill="none" stroke="#2c4224" stroke-width="2.4" stroke-linecap="round" opacity="0.95"/>
<path d="M300.0,1025.0 Q410.0,889.0 341.8,727.9" fill="none" stroke="#3c5a30" stroke-width="3.0" stroke-linecap="round" opacity="0.92"/>
<path d="M314.8,1005.4 Q322.8,993.3 339.1,1021.4" fill="none" stroke="#3c5a30" stroke-width="2.0" stroke-linecap="round" opacity="0.92"/>
<path d="M314.8,1005.4 Q322.8,993.3 290.5,989.4" fill="none" stroke="#3c5a30" stroke-width="2.0" stroke-linecap="round" opacity="0.92"/>
<path d="M327.8,985.6 Q334.2,973.6 351.8,998.4" fill="none" stroke="#3c5a30" stroke-width="2.0" stroke-linecap="round" opacity="0.92"/>
<path d="M327.8,985.6 Q334.2,973.6 303.8,972.9" fill="none" stroke="#3c5a30" stroke-width="2.0" stroke-linecap="round" opacity="0.92"/>
<path d="M339.0,965.6 Q343.9,953.9 362.2,975.3" fill="none" stroke="#3c5a30" stroke-width="2.0" stroke-linecap="round" opacity="0.92"/>
<path d="M339.0,965.6 Q343.9,953.9 315.7,955.8" fill="none" stroke="#3c5a30" stroke-width="2.0" stroke-linecap="round" opacity="0.92"/>
<path d="M348.3,945.2 Q351.9,934.2 370.5,952.4" fill="none" stroke="#3c5a30" stroke-width="2.0" stroke-linecap="round" opacity="0.92"/>
<path d="M348.3,945.2 Q351.9,934.2 326.2,938.0" fill="none" stroke="#3c5a30" stroke-width="2.0" stroke-linecap="round" opacity="0.92"/>
<path d="M355.8,924.7 Q358.3,914.3 376.6,929.6" fill="none" stroke="#3c5a30" stroke-width="2.0" stroke-linecap="round" opacity="0.92"/>
<path d="M355.8,924.7 Q358.3,914.3 335.1,919.7" fill="none" stroke="#3c5a30" stroke-width="2.0" stroke-linecap="round" opacity="0.92"/>
<path d="M361.5,903.8 Q363.1,894.2 380.7,907.0" fill="none" stroke="#3c5a30" stroke-width="2.0" stroke-linecap="round" opacity="0.92"/>
<path d="M361.5,903.8 Q363.1,894.2 342.4,900.7" fill="none" stroke="#3c5a30" stroke-width="2.0" stroke-linecap="round" opacity="0.92"/>
<path d="M365.4,882.7 Q366.3,874.0 382.9,884.4" fill="none" stroke="#3c5a30" stroke-width="2.0" stroke-linecap="round" opacity="0.92"/>
<path d="M365.4,882.7 Q366.3,874.0 348.0,881.0" fill="none" stroke="#3c5a30" stroke-width="2.0" stroke-linecap="round" opacity="0.92"/>
<path d="M367.5,861.4 Q367.8,853.6 383.1,861.9" fill="none" stroke="#3c5a30" stroke-width="2.0" stroke-linecap="round" opacity="0.92"/>
<path d="M367.5,861.4 Q367.8,853.6 351.9,860.8" fill="none" stroke="#3c5a30" stroke-width="2.0" stroke-linecap="round" opacity="0.92"/>
<path d="M367.8,839.8 Q367.6,833.0 381.4,839.5" fill="none" stroke="#3c5a30" stroke-width="2.0" stroke-linecap="round" opacity="0.92"/>
<path d="M367.8,839.8 Q367.6,833.0 354.1,840.0" fill="none" stroke="#3c5a30" stroke-width="2.0" stroke-linecap="round" opacity="0.92"/>
<path d="M366.2,817.9 Q365.8,812.1 377.9,817.1" fill="none" stroke="#3c5a30" stroke-width="2.0" stroke-linecap="round" opacity="0.92"/>
<path d="M366.2,817.9 Q365.8,812.1 354.5,818.7" fill="none" stroke="#3c5a30" stroke-width="2.0" stroke-linecap="round" opacity="0.92"/>
<path d="M362.8,795.8 Q362.3,790.9 372.5,794.7" fill="none" stroke="#3c5a30" stroke-width="2.0" stroke-linecap="round" opacity="0.92"/>
<path d="M362.8,795.8 Q362.3,790.9 353.1,796.9" fill="none" stroke="#3c5a30" stroke-width="2.0" stroke-linecap="round" opacity="0.92"/>
<path d="M357.6,773.4 Q357.0,769.5 365.4,772.2" fill="none" stroke="#3c5a30" stroke-width="2.0" stroke-linecap="round" opacity="0.92"/>
<path d="M357.6,773.4 Q357.0,769.5 349.9,774.6" fill="none" stroke="#3c5a30" stroke-width="2.0" stroke-linecap="round" opacity="0.92"/>
<path d="M350.6,750.8 Q350.0,747.9 356.4,749.7" fill="none" stroke="#3c5a30" stroke-width="2.0" stroke-linecap="round" opacity="0.92"/>
<path d="M350.6,750.8 Q350.0,747.9 344.8,751.9" fill="none" stroke="#3c5a30" stroke-width="2.0" stroke-linecap="round" opacity="0.92"/>
<path d="M540.0,1028.0 Q430.7,896.9 499.6,740.8" fill="none" stroke="#3a5530" stroke-width="3.0" stroke-linecap="round" opacity="0.90"/>
<path d="M525.3,1009.1 Q517.1,997.1 549.3,992.8" fill="none" stroke="#3a5530" stroke-width="2.0" stroke-linecap="round" opacity="0.90"/>
<path d="M525.3,1009.1 Q517.1,997.1 501.2,1025.5" fill="none" stroke="#3a5530" stroke-width="2.0" stroke-linecap="round" opacity="0.90"/>
<path d="M512.4,990.0 Q505.9,978.1 536.2,977.0" fill="none" stroke="#3a5530" stroke-width="2.0" stroke-linecap="round" opacity="0.90"/>
<path d="M512.4,990.0 Q505.9,978.1 488.6,1003.1" fill="none" stroke="#3a5530" stroke-width="2.0" stroke-linecap="round" opacity="0.90"/>
<path d="M501.3,970.7 Q496.3,959.1 524.5,960.7" fill="none" stroke="#3a5530" stroke-width="2.0" stroke-linecap="round" opacity="0.90"/>
<path d="M501.3,970.7 Q496.3,959.1 478.2,980.7" fill="none" stroke="#3a5530" stroke-width="2.0" stroke-linecap="round" opacity="0.90"/>
<path d="M492.1,951.1 Q488.4,940.0 514.2,943.7" fill="none" stroke="#3a5530" stroke-width="2.0" stroke-linecap="round" opacity="0.90"/>
<path d="M492.1,951.1 Q488.4,940.0 470.0,958.4" fill="none" stroke="#3a5530" stroke-width="2.0" stroke-linecap="round" opacity="0.90"/>
<path d="M484.7,931.2 Q482.1,920.8 505.4,926.1" fill="none" stroke="#3a5530" stroke-width="2.0" stroke-linecap="round" opacity="0.90"/>
<path d="M484.7,931.2 Q482.1,920.8 463.9,936.3" fill="none" stroke="#3a5530" stroke-width="2.0" stroke-linecap="round" opacity="0.90"/>
<path d="M479.1,911.1 Q477.5,901.5 498.2,907.9" fill="none" stroke="#3a5530" stroke-width="2.0" stroke-linecap="round" opacity="0.90"/>
<path d="M479.1,911.1 Q477.5,901.5 459.9,914.2" fill="none" stroke="#3a5530" stroke-width="2.0" stroke-linecap="round" opacity="0.90"/>
<path d="M475.3,890.7 Q474.4,882.0 492.7,889.0" fill="none" stroke="#3a5530" stroke-width="2.0" stroke-linecap="round" opacity="0.90"/>
<path d="M475.3,890.7 Q474.4,882.0 457.8,892.4" fill="none" stroke="#3a5530" stroke-width="2.0" stroke-linecap="round" opacity="0.90"/>
<path d="M473.3,870.0 Q473.0,862.3 488.8,869.5" fill="none" stroke="#3a5530" stroke-width="2.0" stroke-linecap="round" opacity="0.90"/>
<path d="M473.3,870.0 Q473.0,862.3 457.7,870.6" fill="none" stroke="#3a5530" stroke-width="2.0" stroke-linecap="round" opacity="0.90"/>
<path d="M473.1,849.1 Q473.3,842.3 486.8,849.4" fill="none" stroke="#3a5530" stroke-width="2.0" stroke-linecap="round" opacity="0.90"/>
<path d="M473.1,849.1 Q473.3,842.3 459.5,848.8" fill="none" stroke="#3a5530" stroke-width="2.0" stroke-linecap="round" opacity="0.90"/>
<path d="M474.8,828.0 Q475.2,822.1 486.5,828.9" fill="none" stroke="#3a5530" stroke-width="2.0" stroke-linecap="round" opacity="0.90"/>
<path d="M474.8,828.0 Q475.2,822.1 463.1,827.1" fill="none" stroke="#3a5530" stroke-width="2.0" stroke-linecap="round" opacity="0.90"/>
<path d="M478.3,806.6 Q478.9,801.7 488.0,807.8" fill="none" stroke="#3a5530" stroke-width="2.0" stroke-linecap="round" opacity="0.90"/>
<path d="M478.3,806.6 Q478.9,801.7 468.6,805.4" fill="none" stroke="#3a5530" stroke-width="2.0" stroke-linecap="round" opacity="0.90"/>
<path d="M483.6,784.9 Q484.2,781.0 491.3,786.2" fill="none" stroke="#3a5530" stroke-width="2.0" stroke-linecap="round" opacity="0.90"/>
<path d="M483.6,784.9 Q484.2,781.0 475.8,783.6" fill="none" stroke="#3a5530" stroke-width="2.0" stroke-linecap="round" opacity="0.90"/>
<path d="M490.7,763.0 Q491.3,760.1 496.5,764.2" fill="none" stroke="#3a5530" stroke-width="2.0" stroke-linecap="round" opacity="0.90"/>
<path d="M490.7,763.0 Q491.3,760.1 484.9,761.8" fill="none" stroke="#3a5530" stroke-width="2.0" stroke-linecap="round" opacity="0.90"/>
<path d="M420.0,1035.0 Q460.0,915.0 420.0,795.0" fill="none" stroke="#4d6d3c" stroke-width="2.4" stroke-linecap="round" opacity="0.88"/>
<path d="M425.3,1017.9 Q428.5,1006.1 448.9,1024.2" fill="none" stroke="#4d6d3c" stroke-width="1.7" stroke-linecap="round" opacity="0.88"/>
<path d="M425.3,1017.9 Q428.5,1006.1 401.7,1011.6" fill="none" stroke="#4d6d3c" stroke-width="1.7" stroke-linecap="round" opacity="0.88"/>
<path d="M429.8,1000.7 Q432.1,989.5 452.2,1005.4" fill="none" stroke="#4d6d3c" stroke-width="1.7" stroke-linecap="round" opacity="0.88"/>
<path d="M429.8,1000.7 Q432.1,989.5 407.4,996.1" fill="none" stroke="#4d6d3c" stroke-width="1.7" stroke-linecap="round" opacity="0.88"/>
<path d="M433.5,983.6 Q435.1,973.1 454.5,986.9" fill="none" stroke="#4d6d3c" stroke-width="1.7" stroke-linecap="round" opacity="0.88"/>
<path d="M433.5,983.6 Q435.1,973.1 412.4,980.3" fill="none" stroke="#4d6d3c" stroke-width="1.7" stroke-linecap="round" opacity="0.88"/>
<path d="M436.3,966.4 Q437.4,956.6 455.9,968.6" fill="none" stroke="#4d6d3c" stroke-width="1.7" stroke-linecap="round" opacity="0.88"/>
<path d="M436.3,966.4 Q437.4,956.6 416.7,964.3" fill="none" stroke="#4d6d3c" stroke-width="1.7" stroke-linecap="round" opacity="0.88"/>
<path d="M438.4,949.3 Q439.0,940.2 456.5,950.6" fill="none" stroke="#4d6d3c" stroke-width="1.7" stroke-linecap="round" opacity="0.88"/>
<path d="M438.4,949.3 Q439.0,940.2 420.3,948.0" fill="none" stroke="#4d6d3c" stroke-width="1.7" stroke-linecap="round" opacity="0.88"/>
<path d="M439.6,932.1 Q439.9,923.9 456.2,932.7" fill="none" stroke="#4d6d3c" stroke-width="1.7" stroke-linecap="round" opacity="0.88"/>
<path d="M439.6,932.1 Q439.9,923.9 423.0,931.6" fill="none" stroke="#4d6d3c" stroke-width="1.7" stroke-linecap="round" opacity="0.88"/>
<path d="M440.0,915.0 Q440.0,907.5 455.0,915.0" fill="none" stroke="#4d6d3c" stroke-width="1.7" stroke-linecap="round" opacity="0.88"/>
<path d="M440.0,915.0 Q440.0,907.5 425.0,915.0" fill="none" stroke="#4d6d3c" stroke-width="1.7" stroke-linecap="round" opacity="0.88"/>
<path d="M439.6,897.9 Q439.4,891.1 453.0,897.5" fill="none" stroke="#4d6d3c" stroke-width="1.7" stroke-linecap="round" opacity="0.88"/>
<path d="M439.6,897.9 Q439.4,891.1 426.2,898.3" fill="none" stroke="#4d6d3c" stroke-width="1.7" stroke-linecap="round" opacity="0.88"/>
<path d="M438.4,880.7 Q438.0,874.8 450.2,880.0" fill="none" stroke="#4d6d3c" stroke-width="1.7" stroke-linecap="round" opacity="0.88"/>
<path d="M438.4,880.7 Q438.0,874.8 426.5,881.4" fill="none" stroke="#4d6d3c" stroke-width="1.7" stroke-linecap="round" opacity="0.88"/>
<path d="M436.3,863.6 Q435.9,858.4 446.6,862.7" fill="none" stroke="#4d6d3c" stroke-width="1.7" stroke-linecap="round" opacity="0.88"/>
<path d="M436.3,863.6 Q435.9,858.4 426.1,864.4" fill="none" stroke="#4d6d3c" stroke-width="1.7" stroke-linecap="round" opacity="0.88"/>
<path d="M433.5,846.4 Q433.0,842.1 442.1,845.5" fill="none" stroke="#4d6d3c" stroke-width="1.7" stroke-linecap="round" opacity="0.88"/>
<path d="M433.5,846.4 Q433.0,842.1 424.8,847.4" fill="none" stroke="#4d6d3c" stroke-width="1.7" stroke-linecap="round" opacity="0.88"/>
<path d="M429.8,829.3 Q429.3,825.7 436.9,828.4" fill="none" stroke="#4d6d3c" stroke-width="1.7" stroke-linecap="round" opacity="0.88"/>
<path d="M429.8,829.3 Q429.3,825.7 422.7,830.2" fill="none" stroke="#4d6d3c" stroke-width="1.7" stroke-linecap="round" opacity="0.88"/>
<path d="M425.3,812.1 Q424.9,809.4 430.8,811.3" fill="none" stroke="#4d6d3c" stroke-width="1.7" stroke-linecap="round" opacity="0.88"/>
<path d="M425.3,812.1 Q424.9,809.4 419.8,813.0" fill="none" stroke="#4d6d3c" stroke-width="1.7" stroke-linecap="round" opacity="0.88"/>
<path d="M190.0,1035.0 Q301.6,972.3 264.9,849.6" fill="none" stroke="#5f8149" stroke-width="2.1" stroke-linecap="round" opacity="0.80"/>
<path d="M205.2,1025.7 Q214.0,1019.5 217.7,1043.4" fill="none" stroke="#5f8149" stroke-width="1.4" stroke-linecap="round" opacity="0.80"/>
<path d="M205.2,1025.7 Q214.0,1019.5 192.7,1008.1" fill="none" stroke="#5f8149" stroke-width="1.4" stroke-linecap="round" opacity="0.80"/>
<path d="M218.9,1015.8 Q226.5,1009.1 232.3,1031.0" fill="none" stroke="#5f8149" stroke-width="1.4" stroke-linecap="round" opacity="0.80"/>
<path d="M218.9,1015.8 Q226.5,1009.1 205.4,1000.7" fill="none" stroke="#5f8149" stroke-width="1.4" stroke-linecap="round" opacity="0.80"/>
<path d="M231.0,1005.4 Q237.4,998.3 245.1,1018.0" fill="none" stroke="#5f8149" stroke-width="1.4" stroke-linecap="round" opacity="0.80"/>
<path d="M231.0,1005.4 Q237.4,998.3 216.9,992.7" fill="none" stroke="#5f8149" stroke-width="1.4" stroke-linecap="round" opacity="0.80"/>
<path d="M241.7,994.3 Q246.8,987.1 256.0,1004.4" fill="none" stroke="#5f8149" stroke-width="1.4" stroke-linecap="round" opacity="0.80"/>
<path d="M241.7,994.3 Q246.8,987.1 227.3,984.1" fill="none" stroke="#5f8149" stroke-width="1.4" stroke-linecap="round" opacity="0.80"/>
<path d="M250.8,982.5 Q254.7,975.4 265.0,990.4" fill="none" stroke="#5f8149" stroke-width="1.4" stroke-linecap="round" opacity="0.80"/>
<path d="M250.8,982.5 Q254.7,975.4 236.6,974.7" fill="none" stroke="#5f8149" stroke-width="1.4" stroke-linecap="round" opacity="0.80"/>
<path d="M258.4,970.2 Q261.3,963.3 272.2,975.9" fill="none" stroke="#5f8149" stroke-width="1.4" stroke-linecap="round" opacity="0.80"/>
<path d="M258.4,970.2 Q261.3,963.3 244.7,964.5" fill="none" stroke="#5f8149" stroke-width="1.4" stroke-linecap="round" opacity="0.80"/>
<path d="M264.5,957.3 Q266.5,950.8 277.5,961.2" fill="none" stroke="#5f8149" stroke-width="1.4" stroke-linecap="round" opacity="0.80"/>
<path d="M264.5,957.3 Q266.5,950.8 251.6,953.4" fill="none" stroke="#5f8149" stroke-width="1.4" stroke-linecap="round" opacity="0.80"/>
<path d="M269.1,943.7 Q270.3,937.8 281.0,946.1" fill="none" stroke="#5f8149" stroke-width="1.4" stroke-linecap="round" opacity="0.80"/>
<path d="M269.1,943.7 Q270.3,937.8 257.2,941.3" fill="none" stroke="#5f8149" stroke-width="1.4" stroke-linecap="round" opacity="0.80"/>
<path d="M272.2,929.6 Q272.8,924.2 282.9,930.8" fill="none" stroke="#5f8149" stroke-width="1.4" stroke-linecap="round" opacity="0.80"/>
<path d="M272.2,929.6 Q272.8,924.2 261.5,928.3" fill="none" stroke="#5f8149" stroke-width="1.4" stroke-linecap="round" opacity="0.80"/>
<path d="M273.8,914.8 Q274.0,910.1 283.2,915.1" fill="none" stroke="#5f8149" stroke-width="1.4" stroke-linecap="round" opacity="0.80"/>
<path d="M273.8,914.8 Q274.0,910.1 264.4,914.4" fill="none" stroke="#5f8149" stroke-width="1.4" stroke-linecap="round" opacity="0.80"/>
<path d="M273.8,899.4 Q273.7,895.4 281.9,899.1" fill="none" stroke="#5f8149" stroke-width="1.4" stroke-linecap="round" opacity="0.80"/>
<path d="M273.8,899.4 Q273.7,895.4 265.8,899.6" fill="none" stroke="#5f8149" stroke-width="1.4" stroke-linecap="round" opacity="0.80"/>
<path d="M272.4,883.4 Q272.1,880.1 279.1,882.8" fill="none" stroke="#5f8149" stroke-width="1.4" stroke-linecap="round" opacity="0.80"/>
<path d="M272.4,883.4 Q272.1,880.1 265.7,884.0" fill="none" stroke="#5f8149" stroke-width="1.4" stroke-linecap="round" opacity="0.80"/>
<path d="M269.4,866.8 Q269.0,864.1 274.7,866.0" fill="none" stroke="#5f8149" stroke-width="1.4" stroke-linecap="round" opacity="0.80"/>
<path d="M269.4,866.8 Q269.0,864.1 264.1,867.6" fill="none" stroke="#5f8149" stroke-width="1.4" stroke-linecap="round" opacity="0.80"/>
<path d="M650.0,1035.0 Q538.4,972.3 575.1,849.6" fill="none" stroke="#5c7d47" stroke-width="2.1" stroke-linecap="round" opacity="0.80"/>
<path d="M634.8,1025.7 Q626.0,1019.5 647.3,1008.1" fill="none" stroke="#5c7d47" stroke-width="1.4" stroke-linecap="round" opacity="0.80"/>
<path d="M634.8,1025.7 Q626.0,1019.5 622.3,1043.4" fill="none" stroke="#5c7d47" stroke-width="1.4" stroke-linecap="round" opacity="0.80"/>
<path d="M621.1,1015.8 Q613.5,1009.1 634.6,1000.7" fill="none" stroke="#5c7d47" stroke-width="1.4" stroke-linecap="round" opacity="0.80"/>
<path d="M621.1,1015.8 Q613.5,1009.1 607.7,1031.0" fill="none" stroke="#5c7d47" stroke-width="1.4" stroke-linecap="round" opacity="0.80"/>
<path d="M609.0,1005.4 Q602.6,998.3 623.1,992.7" fill="none" stroke="#5c7d47" stroke-width="1.4" stroke-linecap="round" opacity="0.80"/>
<path d="M609.0,1005.4 Q602.6,998.3 594.9,1018.0" fill="none" stroke="#5c7d47" stroke-width="1.4" stroke-linecap="round" opacity="0.80"/>
<path d="M598.3,994.3 Q593.2,987.1 612.7,984.1" fill="none" stroke="#5c7d47" stroke-width="1.4" stroke-linecap="round" opacity="0.80"/>
<path d="M598.3,994.3 Q593.2,987.1 584.0,1004.4" fill="none" stroke="#5c7d47" stroke-width="1.4" stroke-linecap="round" opacity="0.80"/>
<path d="M589.2,982.5 Q585.3,975.4 603.4,974.7" fill="none" stroke="#5c7d47" stroke-width="1.4" stroke-linecap="round" opacity="0.80"/>
<path d="M589.2,982.5 Q585.3,975.4 575.0,990.4" fill="none" stroke="#5c7d47" stroke-width="1.4" stroke-linecap="round" opacity="0.80"/>
<path d="M581.6,970.2 Q578.7,963.3 595.3,964.5" fill="none" stroke="#5c7d47" stroke-width="1.4" stroke-linecap="round" opacity="0.80"/>
<path d="M581.6,970.2 Q578.7,963.3 567.8,975.9" fill="none" stroke="#5c7d47" stroke-width="1.4" stroke-linecap="round" opacity="0.80"/>
<path d="M575.5,957.3 Q573.5,950.8 588.4,953.4" fill="none" stroke="#5c7d47" stroke-width="1.4" stroke-linecap="round" opacity="0.80"/>
<path d="M575.5,957.3 Q573.5,950.8 562.5,961.2" fill="none" stroke="#5c7d47" stroke-width="1.4" stroke-linecap="round" opacity="0.80"/>
<path d="M570.9,943.7 Q569.7,937.8 582.8,941.3" fill="none" stroke="#5c7d47" stroke-width="1.4" stroke-linecap="round" opacity="0.80"/>
<path d="M570.9,943.7 Q569.7,937.8 559.0,946.1" fill="none" stroke="#5c7d47" stroke-width="1.4" stroke-linecap="round" opacity="0.80"/>
<path d="M567.8,929.6 Q567.2,924.2 578.5,928.3" fill="none" stroke="#5c7d47" stroke-width="1.4" stroke-linecap="round" opacity="0.80"/>
<path d="M567.8,929.6 Q567.2,924.2 557.1,930.8" fill="none" stroke="#5c7d47" stroke-width="1.4" stroke-linecap="round" opacity="0.80"/>
<path d="M566.2,914.8 Q566.0,910.1 575.6,914.4" fill="none" stroke="#5c7d47" stroke-width="1.4" stroke-linecap="round" opacity="0.80"/>
<path d="M566.2,914.8 Q566.0,910.1 556.8,915.1" fill="none" stroke="#5c7d47" stroke-width="1.4" stroke-linecap="round" opacity="0.80"/>
<path d="M566.2,899.4 Q566.3,895.4 574.2,899.6" fill="none" stroke="#5c7d47" stroke-width="1.4" stroke-linecap="round" opacity="0.80"/>
<path d="M566.2,899.4 Q566.3,895.4 558.1,899.1" fill="none" stroke="#5c7d47" stroke-width="1.4" stroke-linecap="round" opacity="0.80"/>
<path d="M567.6,883.4 Q567.9,880.1 574.3,884.0" fill="none" stroke="#5c7d47" stroke-width="1.4" stroke-linecap="round" opacity="0.80"/>
<path d="M567.6,883.4 Q567.9,880.1 560.9,882.8" fill="none" stroke="#5c7d47" stroke-width="1.4" stroke-linecap="round" opacity="0.80"/>
<path d="M570.6,866.8 Q571.0,864.1 575.9,867.6" fill="none" stroke="#5c7d47" stroke-width="1.4" stroke-linecap="round" opacity="0.80"/>
<path d="M570.6,866.8 Q571.0,864.1 565.3,866.0" fill="none" stroke="#5c7d47" stroke-width="1.4" stroke-linecap="round" opacity="0.80"/>
<ellipse cx="375" cy="750" rx="10" ry="5" fill="#fbf3d8" opacity="0.18"/>
<ellipse cx="649" cy="662" rx="17" ry="9" fill="#fbf3d8" opacity="0.18"/>
<ellipse cx="671" cy="679" rx="18" ry="9" fill="#fbf3d8" opacity="0.18"/>
<ellipse cx="479" cy="670" rx="15" ry="7" fill="#fbf3d8" opacity="0.18"/>
<ellipse cx="538" cy="768" rx="21" ry="11" fill="#fbf3d8" opacity="0.18"/>
<ellipse cx="167" cy="717" rx="10" ry="5" fill="#fbf3d8" opacity="0.18"/>
<ellipse cx="404" cy="882" rx="19" ry="9" fill="#fbf3d8" opacity="0.18"/>
<ellipse cx="586" cy="752" rx="21" ry="11" fill="#fbf3d8" opacity="0.18"/>
<ellipse cx="129" cy="730" rx="20" ry="10" fill="#fbf3d8" opacity="0.18"/>
<ellipse cx="553" cy="761" rx="10" ry="5" fill="#fbf3d8" opacity="0.18"/>
<ellipse cx="241" cy="710" rx="13" ry="7" fill="#fbf3d8" opacity="0.18"/>
<ellipse cx="610" cy="708" rx="24" ry="12" fill="#fbf3d8" opacity="0.18"/>
<ellipse cx="658" cy="673" rx="15" ry="7" fill="#fbf3d8" opacity="0.18"/>
<ellipse cx="394" cy="666" rx="16" ry="8" fill="#fbf3d8" opacity="0.18"/>
</svg>